<?xml version="1.0" encoding="UTF-8" standalone="no"?>
<!-- Created with Inkscape (http://www.inkscape.org/) -->

<svg
   xmlns:dc="http://purl.org/dc/elements/1.1/"
   xmlns:cc="http://creativecommons.org/ns#"
   xmlns:rdf="http://www.w3.org/1999/02/22-rdf-syntax-ns#"
   xmlns:svg="http://www.w3.org/2000/svg"
   xmlns="http://www.w3.org/2000/svg"
   xmlns:sodipodi="http://sodipodi.sourceforge.net/DTD/sodipodi-0.dtd"
   xmlns:inkscape="http://www.inkscape.org/namespaces/inkscape"
   id="svg2"
   version="1.1"
   inkscape:version="0.48.2 r9819"
   width="614.84814"
   height="357.75516"
   xml:space="preserve"
   sodipodi:docname="untitled.pdf"><metadata
     id="metadata8"><rdf:RDF><cc:Work
         rdf:about=""><dc:format>image/svg+xml</dc:format><dc:type
           rdf:resource="http://purl.org/dc/dcmitype/StillImage" /><dc:title></dc:title></cc:Work></rdf:RDF></metadata><defs
     id="defs6"><clipPath
       clipPathUnits="userSpaceOnUse"
       id="clipPath18"><path
         d="m 30,5707.51 0,-3015.01 5872.52,0 0,3015.01 -5872.52,0 z"
         id="path20"
         inkscape:connector-curvature="0" /></clipPath><clipPath
       clipPathUnits="userSpaceOnUse"
       id="clipPath228"><path
         d="m 795,5482.51 0,-2467.51 4560.01,0 0,2467.51 -4560.01,0 z"
         id="path230"
         inkscape:connector-curvature="0" /></clipPath><clipPath
       clipPathUnits="userSpaceOnUse"
       id="clipPath244"><path
         d="m 30,5707.51 0,-3015.01 5872.52,0 0,3015.01 -5872.52,0 z"
         id="path246"
         inkscape:connector-curvature="0" /></clipPath><clipPath
       clipPathUnits="userSpaceOnUse"
       id="clipPath288"><path
         d="m 4342.51,3472.51 0,-322.51 810,0 0,322.51 -810,0 z"
         id="path290"
         inkscape:connector-curvature="0" /></clipPath><clipPath
       clipPathUnits="userSpaceOnUse"
       id="clipPath298"><path
         d="m 30,5707.51 0,-3015.01 5872.52,0 0,3015.01 -5872.52,0 z"
         id="path300"
         inkscape:connector-curvature="0" /></clipPath><clipPath
       clipPathUnits="userSpaceOnUse"
       id="clipPath312"><path
         d="m 4342.51,3472.51 0,-322.51 810,0 0,322.51 -810,0 z"
         id="path314"
         inkscape:connector-curvature="0" /></clipPath></defs><sodipodi:namedview
     pagecolor="#ffffff"
     bordercolor="#666666"
     borderopacity="1"
     objecttolerance="10"
     gridtolerance="10"
     guidetolerance="10"
     inkscape:pageopacity="0"
     inkscape:pageshadow="2"
     inkscape:window-width="1366"
     inkscape:window-height="715"
     id="namedview4"
     showgrid="false"
     fit-margin-top="10"
     fit-margin-left="10"
     fit-margin-right="10"
     fit-margin-bottom="10"
     inkscape:zoom="1.3864231"
     inkscape:cx="344.63926"
     inkscape:cy="178.87758"
     inkscape:window-x="-8"
     inkscape:window-y="-8"
     inkscape:window-maximized="1"
     inkscape:current-layer="g12" /><g
     id="g10"
     inkscape:groupmode="layer"
     inkscape:label="untitled"
     transform="matrix(1.25,0,0,-1.25,-76.008301,710.41507)"><g
       id="g12"
       transform="scale(0.1,0.1)"><g
         id="g14"><g
           id="g16"
           clip-path="url(#clipPath18)"><path
             d="m 795,3022.5 0,2460.01 4552.51,0 0,-2460.01 -4552.51,0"
             style="fill:none;stroke:#ffffff;stroke-width:5.00001001;stroke-linecap:butt;stroke-linejoin:round;stroke-miterlimit:10;stroke-opacity:1;stroke-dasharray:none"
             id="path22"
             inkscape:connector-curvature="0" /><path
             d="m 795,5482.51 4552.51,0"
             style="fill:none;stroke:#000000;stroke-width:5.00001001;stroke-linecap:butt;stroke-linejoin:round;stroke-miterlimit:10;stroke-opacity:1;stroke-dasharray:none"
             id="path24"
             inkscape:connector-curvature="0" /><path
             d="m 795,3022.5 4552.51,0"
             style="fill:none;stroke:#000000;stroke-width:5.00001001;stroke-linecap:butt;stroke-linejoin:round;stroke-miterlimit:10;stroke-opacity:1;stroke-dasharray:none"
             id="path26"
             inkscape:connector-curvature="0" /><path
             d="m 5347.51,3022.5 0,2460.01"
             style="fill:none;stroke:#000000;stroke-width:5.00001001;stroke-linecap:butt;stroke-linejoin:round;stroke-miterlimit:10;stroke-opacity:1;stroke-dasharray:none"
             id="path28"
             inkscape:connector-curvature="0" /><path
             d="m 795,3022.5 0,2460.01"
             style="fill:none;stroke:#000000;stroke-width:5.00001001;stroke-linecap:butt;stroke-linejoin:round;stroke-miterlimit:10;stroke-opacity:1;stroke-dasharray:none"
             id="path30"
             inkscape:connector-curvature="0" /><path
             d="m 795,3022.5 4552.51,0"
             style="fill:none;stroke:#000000;stroke-width:5.00001001;stroke-linecap:butt;stroke-linejoin:round;stroke-miterlimit:10;stroke-opacity:1;stroke-dasharray:none"
             id="path32"
             inkscape:connector-curvature="0" /><path
             d="m 795,3022.5 0,2460.01"
             style="fill:none;stroke:#000000;stroke-width:5.00001001;stroke-linecap:butt;stroke-linejoin:round;stroke-miterlimit:10;stroke-opacity:1;stroke-dasharray:none"
             id="path34"
             inkscape:connector-curvature="0" /><path
             d="m 795,3022.5 0,52.5"
             style="fill:none;stroke:#000000;stroke-width:5.00001001;stroke-linecap:butt;stroke-linejoin:round;stroke-miterlimit:10;stroke-opacity:1;stroke-dasharray:none"
             id="path36"
             inkscape:connector-curvature="0" /><path
             d="m 795,5482.51 0,-45"
             style="fill:none;stroke:#000000;stroke-width:5.00001001;stroke-linecap:butt;stroke-linejoin:round;stroke-miterlimit:10;stroke-opacity:1;stroke-dasharray:none"
             id="path38"
             inkscape:connector-curvature="0" /><g
             id="g40"
             transform="scale(10,10)"><text
               transform="matrix(1,0,0,-1,77.25,290.25)"
               id="text42"><tspan
                 style="font-size:10px;font-variant:normal;font-weight:normal;writing-mode:lr-tb;fill:#000000;fill-opacity:1;fill-rule:nonzero;stroke:none;font-family:Helvetica;-inkscape-font-specification:Helvetica"
                 x="0"
                 y="0"
                 id="tspan44">0</tspan></text>
</g><path
             d="m 1245,3022.5 0,52.5"
             style="fill:none;stroke:#000000;stroke-width:5.00001001;stroke-linecap:butt;stroke-linejoin:round;stroke-miterlimit:10;stroke-opacity:1;stroke-dasharray:none"
             id="path46"
             inkscape:connector-curvature="0" /><path
             d="m 1245,5482.51 0,-45"
             style="fill:none;stroke:#000000;stroke-width:5.00001001;stroke-linecap:butt;stroke-linejoin:round;stroke-miterlimit:10;stroke-opacity:1;stroke-dasharray:none"
             id="path48"
             inkscape:connector-curvature="0" /><g
             id="g50"
             transform="scale(10,10)"><text
               transform="matrix(1,0,0,-1,112.5,290.25)"
               id="text52"><tspan
                 style="font-size:10px;font-variant:normal;font-weight:normal;writing-mode:lr-tb;fill:#000000;fill-opacity:1;fill-rule:nonzero;stroke:none;font-family:Helvetica;-inkscape-font-specification:Helvetica"
                 x="0 5.5599999 8.3400002 13.9 19.459999"
                 y="0"
                 sodipodi:role="line"
                 id="tspan54">0.002</tspan></text>
</g><path
             d="m 1702.5,3022.5 0,52.5"
             style="fill:none;stroke:#000000;stroke-width:5.00001001;stroke-linecap:butt;stroke-linejoin:round;stroke-miterlimit:10;stroke-opacity:1;stroke-dasharray:none"
             id="path56"
             inkscape:connector-curvature="0" /><path
             d="m 1702.5,5482.51 0,-45"
             style="fill:none;stroke:#000000;stroke-width:5.00001001;stroke-linecap:butt;stroke-linejoin:round;stroke-miterlimit:10;stroke-opacity:1;stroke-dasharray:none"
             id="path58"
             inkscape:connector-curvature="0" /><g
             id="g60"
             transform="scale(10,10)"><text
               transform="matrix(1,0,0,-1,158.25,290.25)"
               id="text62"><tspan
                 style="font-size:10px;font-variant:normal;font-weight:normal;writing-mode:lr-tb;fill:#000000;fill-opacity:1;fill-rule:nonzero;stroke:none;font-family:Helvetica;-inkscape-font-specification:Helvetica"
                 x="0 5.5599999 8.3400002 13.9 19.459999"
                 y="0"
                 sodipodi:role="line"
                 id="tspan64">0.004</tspan></text>
</g><path
             d="m 2160,3022.5 0,52.5"
             style="fill:none;stroke:#000000;stroke-width:5.00001001;stroke-linecap:butt;stroke-linejoin:round;stroke-miterlimit:10;stroke-opacity:1;stroke-dasharray:none"
             id="path66"
             inkscape:connector-curvature="0" /><path
             d="m 2160,5482.51 0,-45"
             style="fill:none;stroke:#000000;stroke-width:5.00001001;stroke-linecap:butt;stroke-linejoin:round;stroke-miterlimit:10;stroke-opacity:1;stroke-dasharray:none"
             id="path68"
             inkscape:connector-curvature="0" /><g
             id="g70"
             transform="scale(10,10)"><text
               transform="matrix(1,0,0,-1,204,290.25)"
               id="text72"><tspan
                 style="font-size:10px;font-variant:normal;font-weight:normal;writing-mode:lr-tb;fill:#000000;fill-opacity:1;fill-rule:nonzero;stroke:none;font-family:Helvetica;-inkscape-font-specification:Helvetica"
                 x="0 5.5599999 8.3400002 13.9 19.459999"
                 y="0"
                 sodipodi:role="line"
                 id="tspan74">0.006</tspan></text>
</g><path
             d="m 2610.01,3022.5 0,52.5"
             style="fill:none;stroke:#000000;stroke-width:5.00001001;stroke-linecap:butt;stroke-linejoin:round;stroke-miterlimit:10;stroke-opacity:1;stroke-dasharray:none"
             id="path76"
             inkscape:connector-curvature="0" /><path
             d="m 2610.01,5482.51 0,-45"
             style="fill:none;stroke:#000000;stroke-width:5.00001001;stroke-linecap:butt;stroke-linejoin:round;stroke-miterlimit:10;stroke-opacity:1;stroke-dasharray:none"
             id="path78"
             inkscape:connector-curvature="0" /><g
             id="g80"
             transform="scale(10,10)"><text
               transform="matrix(1,0,0,-1,249.001,290.25)"
               id="text82"><tspan
                 style="font-size:10px;font-variant:normal;font-weight:normal;writing-mode:lr-tb;fill:#000000;fill-opacity:1;fill-rule:nonzero;stroke:none;font-family:Helvetica;-inkscape-font-specification:Helvetica"
                 x="0 5.5599999 8.3400002 13.9 19.459999"
                 y="0"
                 sodipodi:role="line"
                 id="tspan84">0.008</tspan></text>
</g><path
             d="m 3067.51,3022.5 0,52.5"
             style="fill:none;stroke:#000000;stroke-width:5.00001001;stroke-linecap:butt;stroke-linejoin:round;stroke-miterlimit:10;stroke-opacity:1;stroke-dasharray:none"
             id="path86"
             inkscape:connector-curvature="0" /><path
             d="m 3067.51,5482.51 0,-45"
             style="fill:none;stroke:#000000;stroke-width:5.00001001;stroke-linecap:butt;stroke-linejoin:round;stroke-miterlimit:10;stroke-opacity:1;stroke-dasharray:none"
             id="path88"
             inkscape:connector-curvature="0" /><g
             id="g90"
             transform="scale(10,10)"><text
               transform="matrix(1,0,0,-1,297.751,290.25)"
               id="text92"><tspan
                 style="font-size:10px;font-variant:normal;font-weight:normal;writing-mode:lr-tb;fill:#000000;fill-opacity:1;fill-rule:nonzero;stroke:none;font-family:Helvetica;-inkscape-font-specification:Helvetica"
                 x="0 5.5599999 8.3400002 13.9"
                 y="0"
                 sodipodi:role="line"
                 id="tspan94">0.01</tspan></text>
</g><path
             d="m 3525.01,3022.5 0,52.5"
             style="fill:none;stroke:#000000;stroke-width:5.00001001;stroke-linecap:butt;stroke-linejoin:round;stroke-miterlimit:10;stroke-opacity:1;stroke-dasharray:none"
             id="path96"
             inkscape:connector-curvature="0" /><path
             d="m 3525.01,5482.51 0,-45"
             style="fill:none;stroke:#000000;stroke-width:5.00001001;stroke-linecap:butt;stroke-linejoin:round;stroke-miterlimit:10;stroke-opacity:1;stroke-dasharray:none"
             id="path98"
             inkscape:connector-curvature="0" /><g
             id="g100"
             transform="scale(10,10)"><text
               transform="matrix(1,0,0,-1,340.501,290.25)"
               id="text102"><tspan
                 style="font-size:10px;font-variant:normal;font-weight:normal;writing-mode:lr-tb;fill:#000000;fill-opacity:1;fill-rule:nonzero;stroke:none;font-family:Helvetica;-inkscape-font-specification:Helvetica"
                 x="0 5.5599999 8.3400002 13.9 19.459999"
                 y="0"
                 sodipodi:role="line"
                 id="tspan104">0.012</tspan></text>
</g><path
             d="m 3975.01,3022.5 0,52.5"
             style="fill:none;stroke:#000000;stroke-width:5.00001001;stroke-linecap:butt;stroke-linejoin:round;stroke-miterlimit:10;stroke-opacity:1;stroke-dasharray:none"
             id="path106"
             inkscape:connector-curvature="0" /><path
             d="m 3975.01,5482.51 0,-45"
             style="fill:none;stroke:#000000;stroke-width:5.00001001;stroke-linecap:butt;stroke-linejoin:round;stroke-miterlimit:10;stroke-opacity:1;stroke-dasharray:none"
             id="path108"
             inkscape:connector-curvature="0" /><g
             id="g110"
             transform="scale(10,10)"><text
               transform="matrix(1,0,0,-1,385.501,290.25)"
               id="text112"><tspan
                 style="font-size:10px;font-variant:normal;font-weight:normal;writing-mode:lr-tb;fill:#000000;fill-opacity:1;fill-rule:nonzero;stroke:none;font-family:Helvetica;-inkscape-font-specification:Helvetica"
                 x="0 5.5599999 8.3400002 13.9 19.459999"
                 y="0"
                 sodipodi:role="line"
                 id="tspan114">0.014</tspan></text>
</g><path
             d="m 4432.51,3022.5 0,52.5"
             style="fill:none;stroke:#000000;stroke-width:5.00001001;stroke-linecap:butt;stroke-linejoin:round;stroke-miterlimit:10;stroke-opacity:1;stroke-dasharray:none"
             id="path116"
             inkscape:connector-curvature="0" /><path
             d="m 4432.51,5482.51 0,-45"
             style="fill:none;stroke:#000000;stroke-width:5.00001001;stroke-linecap:butt;stroke-linejoin:round;stroke-miterlimit:10;stroke-opacity:1;stroke-dasharray:none"
             id="path118"
             inkscape:connector-curvature="0" /><g
             id="g120"
             transform="scale(10,10)"><text
               transform="matrix(1,0,0,-1,431.251,290.25)"
               id="text122"><tspan
                 style="font-size:10px;font-variant:normal;font-weight:normal;writing-mode:lr-tb;fill:#000000;fill-opacity:1;fill-rule:nonzero;stroke:none;font-family:Helvetica;-inkscape-font-specification:Helvetica"
                 x="0 5.5599999 8.3400002 13.9 19.459999"
                 y="0"
                 sodipodi:role="line"
                 id="tspan124">0.016</tspan></text>
</g><path
             d="m 4890.01,3022.5 0,52.5"
             style="fill:none;stroke:#000000;stroke-width:5.00001001;stroke-linecap:butt;stroke-linejoin:round;stroke-miterlimit:10;stroke-opacity:1;stroke-dasharray:none"
             id="path126"
             inkscape:connector-curvature="0" /><path
             d="m 4890.01,5482.51 0,-45"
             style="fill:none;stroke:#000000;stroke-width:5.00001001;stroke-linecap:butt;stroke-linejoin:round;stroke-miterlimit:10;stroke-opacity:1;stroke-dasharray:none"
             id="path128"
             inkscape:connector-curvature="0" /><g
             id="g130"
             transform="scale(10,10)"><text
               transform="matrix(1,0,0,-1,477.001,290.25)"
               id="text132"><tspan
                 style="font-size:10px;font-variant:normal;font-weight:normal;writing-mode:lr-tb;fill:#000000;fill-opacity:1;fill-rule:nonzero;stroke:none;font-family:Helvetica;-inkscape-font-specification:Helvetica"
                 x="0 5.5599999 8.3400002 13.9 19.459999"
                 y="0"
                 sodipodi:role="line"
                 id="tspan134">0.018</tspan></text>
</g><path
             d="m 5347.51,3022.5 0,52.5"
             style="fill:none;stroke:#000000;stroke-width:5.00001001;stroke-linecap:butt;stroke-linejoin:round;stroke-miterlimit:10;stroke-opacity:1;stroke-dasharray:none"
             id="path136"
             inkscape:connector-curvature="0" /><path
             d="m 5347.51,5482.51 0,-45"
             style="fill:none;stroke:#000000;stroke-width:5.00001001;stroke-linecap:butt;stroke-linejoin:round;stroke-miterlimit:10;stroke-opacity:1;stroke-dasharray:none"
             id="path138"
             inkscape:connector-curvature="0" /><g
             id="g140"
             transform="scale(10,10)"><text
               transform="matrix(1,0,0,-1,525.751,290.25)"
               id="text142"><tspan
                 style="font-size:10px;font-variant:normal;font-weight:normal;writing-mode:lr-tb;fill:#000000;fill-opacity:1;fill-rule:nonzero;stroke:none;font-family:Helvetica;-inkscape-font-specification:Helvetica"
                 x="0 5.5599999 8.3400002 13.9"
                 y="0"
                 sodipodi:role="line"
                 id="tspan144">0.02</tspan></text>
</g><path
             d="m 795,3022.5 45.004,0"
             style="fill:none;stroke:#000000;stroke-width:5.00001001;stroke-linecap:butt;stroke-linejoin:round;stroke-miterlimit:10;stroke-opacity:1;stroke-dasharray:none"
             id="path146"
             inkscape:connector-curvature="0" /><path
             d="m 5347.51,3022.5 -52.5,0"
             style="fill:none;stroke:#000000;stroke-width:5.00001001;stroke-linecap:butt;stroke-linejoin:round;stroke-miterlimit:10;stroke-opacity:1;stroke-dasharray:none"
             id="path148"
             inkscape:connector-curvature="0" /><g
             id="g150"
             transform="scale(10,10)"><text
               transform="matrix(1,0,0,-1,68.25,298.5)"
               id="text152"><tspan
                 style="font-size:10px;font-variant:normal;font-weight:normal;writing-mode:lr-tb;fill:#000000;fill-opacity:1;fill-rule:nonzero;stroke:none;font-family:Helvetica;-inkscape-font-specification:Helvetica"
                 x="0 5.8400002"
                 y="0"
                 sodipodi:role="line"
                 id="tspan154">−3</tspan></text>
</g><path
             d="m 795,3435.01 45.004,0"
             style="fill:none;stroke:#000000;stroke-width:5.00001001;stroke-linecap:butt;stroke-linejoin:round;stroke-miterlimit:10;stroke-opacity:1;stroke-dasharray:none"
             id="path156"
             inkscape:connector-curvature="0" /><path
             d="m 5347.51,3435.01 -52.5,0"
             style="fill:none;stroke:#000000;stroke-width:5.00001001;stroke-linecap:butt;stroke-linejoin:round;stroke-miterlimit:10;stroke-opacity:1;stroke-dasharray:none"
             id="path158"
             inkscape:connector-curvature="0" /><g
             id="g160"
             transform="scale(10,10)"><text
               transform="matrix(1,0,0,-1,68.25,339.751)"
               id="text162"><tspan
                 style="font-size:10px;font-variant:normal;font-weight:normal;writing-mode:lr-tb;fill:#000000;fill-opacity:1;fill-rule:nonzero;stroke:none;font-family:Helvetica;-inkscape-font-specification:Helvetica"
                 x="0 5.8400002"
                 y="0"
                 sodipodi:role="line"
                 id="tspan164">−2</tspan></text>
</g><path
             d="m 795,3847.51 45.004,0"
             style="fill:none;stroke:#000000;stroke-width:5.00001001;stroke-linecap:butt;stroke-linejoin:round;stroke-miterlimit:10;stroke-opacity:1;stroke-dasharray:none"
             id="path166"
             inkscape:connector-curvature="0" /><path
             d="m 5347.51,3847.51 -52.5,0"
             style="fill:none;stroke:#000000;stroke-width:5.00001001;stroke-linecap:butt;stroke-linejoin:round;stroke-miterlimit:10;stroke-opacity:1;stroke-dasharray:none"
             id="path168"
             inkscape:connector-curvature="0" /><g
             id="g170"
             transform="scale(10,10)"><text
               transform="matrix(1,0,0,-1,68.25,381.001)"
               id="text172"><tspan
                 style="font-size:10px;font-variant:normal;font-weight:normal;writing-mode:lr-tb;fill:#000000;fill-opacity:1;fill-rule:nonzero;stroke:none;font-family:Helvetica;-inkscape-font-specification:Helvetica"
                 x="0 5.8400002"
                 y="0"
                 sodipodi:role="line"
                 id="tspan174">−1</tspan></text>
</g><path
             d="m 795,4252.51 45.004,0"
             style="fill:none;stroke:#000000;stroke-width:5.00001001;stroke-linecap:butt;stroke-linejoin:round;stroke-miterlimit:10;stroke-opacity:1;stroke-dasharray:none"
             id="path176"
             inkscape:connector-curvature="0" /><path
             d="m 5347.51,4252.51 -52.5,0"
             style="fill:none;stroke:#000000;stroke-width:5.00001001;stroke-linecap:butt;stroke-linejoin:round;stroke-miterlimit:10;stroke-opacity:1;stroke-dasharray:none"
             id="path178"
             inkscape:connector-curvature="0" /><g
             id="g180"
             transform="scale(10,10)"><text
               transform="matrix(1,0,0,-1,71.25,421.501)"
               id="text182"><tspan
                 style="font-size:10px;font-variant:normal;font-weight:normal;writing-mode:lr-tb;fill:#000000;fill-opacity:1;fill-rule:nonzero;stroke:none;font-family:Helvetica;-inkscape-font-specification:Helvetica"
                 x="0"
                 y="0"
                 id="tspan184">0</tspan></text>
</g><path
             d="m 795,4665.01 45.004,0"
             style="fill:none;stroke:#000000;stroke-width:5.00001001;stroke-linecap:butt;stroke-linejoin:round;stroke-miterlimit:10;stroke-opacity:1;stroke-dasharray:none"
             id="path186"
             inkscape:connector-curvature="0" /><path
             d="m 5347.51,4665.01 -52.5,0"
             style="fill:none;stroke:#000000;stroke-width:5.00001001;stroke-linecap:butt;stroke-linejoin:round;stroke-miterlimit:10;stroke-opacity:1;stroke-dasharray:none"
             id="path188"
             inkscape:connector-curvature="0" /><g
             id="g190"
             transform="scale(10,10)"><text
               transform="matrix(1,0,0,-1,71.25,462.751)"
               id="text192"><tspan
                 style="font-size:10px;font-variant:normal;font-weight:normal;writing-mode:lr-tb;fill:#000000;fill-opacity:1;fill-rule:nonzero;stroke:none;font-family:Helvetica;-inkscape-font-specification:Helvetica"
                 x="0"
                 y="0"
                 id="tspan194">1</tspan></text>
</g><path
             d="m 795,5077.51 45.004,0"
             style="fill:none;stroke:#000000;stroke-width:5.00001001;stroke-linecap:butt;stroke-linejoin:round;stroke-miterlimit:10;stroke-opacity:1;stroke-dasharray:none"
             id="path196"
             inkscape:connector-curvature="0" /><path
             d="m 5347.51,5077.51 -52.5,0"
             style="fill:none;stroke:#000000;stroke-width:5.00001001;stroke-linecap:butt;stroke-linejoin:round;stroke-miterlimit:10;stroke-opacity:1;stroke-dasharray:none"
             id="path198"
             inkscape:connector-curvature="0" /><g
             id="g200"
             transform="scale(10,10)"><text
               transform="matrix(1,0,0,-1,71.25,504.001)"
               id="text202"><tspan
                 style="font-size:10px;font-variant:normal;font-weight:normal;writing-mode:lr-tb;fill:#000000;fill-opacity:1;fill-rule:nonzero;stroke:none;font-family:Helvetica;-inkscape-font-specification:Helvetica"
                 x="0"
                 y="0"
                 id="tspan204">2</tspan></text>
</g><path
             d="m 795,5482.51 45.004,0"
             style="fill:none;stroke:#000000;stroke-width:5.00001001;stroke-linecap:butt;stroke-linejoin:round;stroke-miterlimit:10;stroke-opacity:1;stroke-dasharray:none"
             id="path206"
             inkscape:connector-curvature="0" /><path
             d="m 5347.51,5482.51 -52.5,0"
             style="fill:none;stroke:#000000;stroke-width:5.00001001;stroke-linecap:butt;stroke-linejoin:round;stroke-miterlimit:10;stroke-opacity:1;stroke-dasharray:none"
             id="path208"
             inkscape:connector-curvature="0" /><g
             id="g210"
             transform="scale(10,10)"><text
               transform="matrix(1,0,0,-1,71.25,544.501)"
               id="text212"><tspan
                 style="font-size:10px;font-variant:normal;font-weight:normal;writing-mode:lr-tb;fill:#000000;fill-opacity:1;fill-rule:nonzero;stroke:none;font-family:Helvetica;-inkscape-font-specification:Helvetica"
                 x="0"
                 y="0"
                 id="tspan214">3</tspan></text>
</g><path
             d="m 795,5482.51 4552.51,0"
             style="fill:none;stroke:#000000;stroke-width:5.00001001;stroke-linecap:butt;stroke-linejoin:round;stroke-miterlimit:10;stroke-opacity:1;stroke-dasharray:none"
             id="path216"
             inkscape:connector-curvature="0" /><path
             d="m 795,3022.5 4552.51,0"
             style="fill:none;stroke:#000000;stroke-width:5.00001001;stroke-linecap:butt;stroke-linejoin:round;stroke-miterlimit:10;stroke-opacity:1;stroke-dasharray:none"
             id="path218"
             inkscape:connector-curvature="0" /><path
             d="m 5347.51,3022.5 0,2460.01"
             style="fill:none;stroke:#000000;stroke-width:5.00001001;stroke-linecap:butt;stroke-linejoin:round;stroke-miterlimit:10;stroke-opacity:1;stroke-dasharray:none"
             id="path220"
             inkscape:connector-curvature="0" /><path
             d="m 795,3022.5 0,2460.01"
             style="fill:none;stroke:#000000;stroke-width:5.00001001;stroke-linecap:butt;stroke-linejoin:round;stroke-miterlimit:10;stroke-opacity:1;stroke-dasharray:none"
             id="path222"
             inkscape:connector-curvature="0" /></g></g><g
         id="g224"><g
           id="g226"
           clip-path="url(#clipPath228)"><path
             d="m 1590,3045 37.5,-15 37.5,0 37.5,15 37.5,22.5 37.5,37.5 37.5,52.5 37.5,67.5 37.5,75 37.5,90.01 37.5,90 37.5,105 37.5,112.5 37.5,120 45,120 37.5,127.5 37.5,127.5 37.5,127.5 37.5,127.5 37.5,127.5 37.5,120 37.5,120 37.51,112.5 37.5,105 37.5,90 37.5,90 37.5,75 37.5,67.5 37.5,52.5 37.5,37.5 37.5,22.5 45,15 37.5,0 37.5,-15 37.5,-22.5 37.5,-37.5 37.5,-52.5 37.5,-67.5 37.5,-75 37.5,-90 37.5,-90 37.5,-105 37.5,-112.5 37.5,-120 37.5,-120 37.5,-127.5 37.5,-127.5 37.5,-127.5 45,-127.5 37.5,-127.5 37.5,-120 37.5,-120 37.5,-112.5 37.5,-105 37.5,-90 37.5,-90.01 37.5,-75 37.5,-67.5 37.5,-52.5 37.5,-37.5 37.5,-22.5 37.5,-15 37.5,0 37.5,15 37.5,22.5 45,37.5 37.5,52.5 37.5,67.5 37.5,75 37.5,90.01 37.5,90 37.5,105 37.5,112.5 37.5,120 37.5,120 37.5,127.5 37.5,127.5 37.5,127.5 37.5,127.5 37.5,127.5 37.5,120 37.5,120 45,112.5 37.5,105 37.5,90 37.5,90 37.5,75 37.5,67.5 37.5,52.5 37.5,37.5 37.5,22.5 37.5,15 37.5,0 37.5,-15 37.5,-22.5 37.5,-37.5 37.5,-52.5 37.5,-67.5 37.5,-75 45,-90"
             style="fill:none;stroke:#0000ff;stroke-width:5.00001001;stroke-linecap:butt;stroke-linejoin:round;stroke-miterlimit:10;stroke-opacity:1;stroke-dasharray:none"
             id="path232"
             inkscape:connector-curvature="0" /><path
             d="m 795,5122.51 37.504,-90 37.5,-105 37.5,-112.5 37.5,-120 37.5,-120 37.496,-127.5 37.5,-127.5 37.5,-127.5 37.5,-127.5 37.5,-127.5 37.5,-120 37.5,-120 37.5,-112.5 37.5,-105 37.5,-90 37.5,-90.01 37.5,-75 45,-67.5 37.5,-52.5 37.5,-37.5 37.5,-22.5"
             style="fill:none;stroke:#0000ff;stroke-width:5.00001001;stroke-linecap:butt;stroke-linejoin:round;stroke-miterlimit:10;stroke-opacity:1;stroke-dasharray:none"
             id="path234"
             inkscape:connector-curvature="0" /><path
             d="m 1590,4642.51 37.5,-67.5 37.5,-97.5 37.5,-105 37.5,-112.5 37.5,-112.5 37.5,-90 37.5,-60 37.5,-37.5 37.5,-7.5 37.5,30 37.5,45 37.5,67.5 37.5,82.5 45,75 37.5,82.5 37.5,60 37.5,45 37.5,30 37.5,0 37.5,-15 37.5,-37.5 37.51,-45 37.5,-60 37.5,-52.5 37.5,-60 37.5,-45 37.5,-30 37.5,-22.5 37.5,0 37.5,15 45,22.5 37.5,37.5 37.5,37.5 37.5,37.5 37.5,45 37.5,30 37.5,22.5 37.5,15 37.5,0 37.5,-7.5 37.5,-15 37.5,-30 37.5,-22.5 37.5,-37.5 37.5,-22.5 37.5,-22.5 37.5,-22.5 45,-7.5 37.5,0 37.5,7.5 37.5,7.5 37.5,22.5 37.5,22.5 37.5,15 37.5,22.5 37.5,15 37.5,15 37.5,7.5 37.5,0 37.5,-7.5 37.5,-7.5 37.5,-7.5 37.5,-15 37.5,-22.5 45,-7.5 37.5,-15 37.5,-7.5 37.5,-7.5 75,0 37.5,7.5 37.5,15 37.5,7.5 37.5,7.5 37.5,15 37.5,7.5 37.5,7.5 112.5,0 37.5,-7.5 45,0 37.5,-7.5 37.5,-15 37.5,0 37.5,-7.5 37.5,-7.5 150,0 37.5,7.5 37.5,7.5 37.5,0 37.5,7.5 37.5,7.5 75,0 45,7.5"
             style="fill:none;stroke:#008000;stroke-width:5.00001001;stroke-linecap:butt;stroke-linejoin:round;stroke-miterlimit:10;stroke-opacity:1;stroke-dasharray:none"
             id="path236"
             inkscape:connector-curvature="0" /><path
             d="m 795,5077.51 37.504,-67.5 37.5,-135 37.5,-180 37.5,-217.5 37.5,-217.5 37.496,-210 37.5,-172.5 37.5,-127.5 37.5,-75 37.5,-7.5 37.5,45 37.5,97.5 37.5,135 37.5,150 37.5,157.5 37.5,150 37.5,127.5 45,90 37.5,52.5 37.5,7.5 37.5,-37.5"
             style="fill:none;stroke:#008000;stroke-width:5.00001001;stroke-linecap:butt;stroke-linejoin:round;stroke-miterlimit:10;stroke-opacity:1;stroke-dasharray:none"
             id="path238"
             inkscape:connector-curvature="0" /></g></g><g
         id="g240"><g
           id="g242"
           clip-path="url(#clipPath244)"><g
             id="g248"
             transform="scale(10,10)"><text
               transform="matrix(1,0,0,-1,288.751,553.501)"
               id="text250"
               sodipodi:linespacing="125%"><tspan
                 style="font-size:10px;font-variant:normal;font-weight:normal;writing-mode:lr;fill:#000000;fill-opacity:1;fill-rule:nonzero;stroke:none;font-family:Segoe Print;-inkscape-font-specification:Segoe Print;font-style:normal;font-stretch:normal;text-anchor:start;text-align:start;line-height:125%"
                 x="0 4.5 9.75 15 19.5 22.5 27.75 33"
                 y="0"
                 sodipodi:role="line"
                 id="tspan252">Funzioni</tspan></text>
</g><path
             d="m 4342.51,3157.5 802.5,0 0,315.004 -802.5,0 0,-315.004 z"
             style="fill:#ffffff;fill-opacity:1;fill-rule:evenodd;stroke:none"
             id="path254"
             inkscape:connector-curvature="0" /><path
             d="m 4342.51,3157.5 0,315.01 802.5,0 0,-315.01 -802.5,0"
             style="fill:none;stroke:#ffffff;stroke-width:5.00001001;stroke-linecap:butt;stroke-linejoin:round;stroke-miterlimit:10;stroke-opacity:1;stroke-dasharray:none"
             id="path256"
             inkscape:connector-curvature="0" /><path
             d="m 4342.51,3472.51 802.5,0"
             style="fill:none;stroke:#000000;stroke-width:5.00001001;stroke-linecap:butt;stroke-linejoin:round;stroke-miterlimit:10;stroke-opacity:1;stroke-dasharray:none"
             id="path258"
             inkscape:connector-curvature="0" /><path
             d="m 4342.51,3157.5 802.5,0"
             style="fill:none;stroke:#000000;stroke-width:5.00001001;stroke-linecap:butt;stroke-linejoin:round;stroke-miterlimit:10;stroke-opacity:1;stroke-dasharray:none"
             id="path260"
             inkscape:connector-curvature="0" /><path
             d="m 5145.01,3157.5 0,315.01"
             style="fill:none;stroke:#000000;stroke-width:5.00001001;stroke-linecap:butt;stroke-linejoin:round;stroke-miterlimit:10;stroke-opacity:1;stroke-dasharray:none"
             id="path262"
             inkscape:connector-curvature="0" /><path
             d="m 4342.51,3157.5 0,315.01"
             style="fill:none;stroke:#000000;stroke-width:5.00001001;stroke-linecap:butt;stroke-linejoin:round;stroke-miterlimit:10;stroke-opacity:1;stroke-dasharray:none"
             id="path264"
             inkscape:connector-curvature="0" /><path
             d="m 4342.51,3157.5 802.5,0"
             style="fill:none;stroke:#000000;stroke-width:5.00001001;stroke-linecap:butt;stroke-linejoin:round;stroke-miterlimit:10;stroke-opacity:1;stroke-dasharray:none"
             id="path266"
             inkscape:connector-curvature="0" /><path
             d="m 4342.51,3157.5 0,315.01"
             style="fill:none;stroke:#000000;stroke-width:5.00001001;stroke-linecap:butt;stroke-linejoin:round;stroke-miterlimit:10;stroke-opacity:1;stroke-dasharray:none"
             id="path268"
             inkscape:connector-curvature="0" /><path
             d="m 4342.51,3472.51 802.5,0"
             style="fill:none;stroke:#000000;stroke-width:5.00001001;stroke-linecap:butt;stroke-linejoin:round;stroke-miterlimit:10;stroke-opacity:1;stroke-dasharray:none"
             id="path270"
             inkscape:connector-curvature="0" /><path
             d="m 4342.51,3157.5 802.5,0"
             style="fill:none;stroke:#000000;stroke-width:5.00001001;stroke-linecap:butt;stroke-linejoin:round;stroke-miterlimit:10;stroke-opacity:1;stroke-dasharray:none"
             id="path272"
             inkscape:connector-curvature="0" /><path
             d="m 5145.01,3157.5 0,315.01"
             style="fill:none;stroke:#000000;stroke-width:5.00001001;stroke-linecap:butt;stroke-linejoin:round;stroke-miterlimit:10;stroke-opacity:1;stroke-dasharray:none"
             id="path274"
             inkscape:connector-curvature="0" /><path
             d="m 4342.51,3157.5 0,315.01"
             style="fill:none;stroke:#000000;stroke-width:5.00001001;stroke-linecap:butt;stroke-linejoin:round;stroke-miterlimit:10;stroke-opacity:1;stroke-dasharray:none"
             id="path276"
             inkscape:connector-curvature="0" /><g
             id="g278"
             transform="scale(10,10)"><text
               transform="matrix(1,0,0,-1,473.251,334.501)"
               id="text280"
               sodipodi:linespacing="125%"><tspan
                 style="font-size:10px;font-variant:normal;font-weight:normal;writing-mode:lr;fill:#000000;fill-opacity:1;fill-rule:nonzero;stroke:none;font-family:Segoe Print;-inkscape-font-specification:Segoe Print;font-style:normal;font-stretch:normal;text-anchor:start;text-align:start;line-height:125%"
                 x="0 5.5599999 8.8900003 11.11 19.440001"
                 y="0"
                 sodipodi:role="line"
                 id="tspan282">prima</tspan></text>
</g></g></g><g
         id="g284"><g
           id="g286"
           clip-path="url(#clipPath288)"><path
             d="m 4402.51,3390.01 300,0"
             style="fill:none;stroke:#0000ff;stroke-width:5.00001001;stroke-linecap:butt;stroke-linejoin:round;stroke-miterlimit:10;stroke-opacity:1;stroke-dasharray:none"
             id="path292"
             inkscape:connector-curvature="0" /></g></g><g
         id="g294"><g
           id="g296"
           clip-path="url(#clipPath298)"><g
             id="g302"
             transform="scale(10,10)"><text
               transform="matrix(1,0,0,-1,473.251,320.25)"
               id="text304"
               sodipodi:linespacing="125%"><tspan
                 style="font-size:10px;font-variant:normal;font-weight:normal;writing-mode:lr;fill:#000000;fill-opacity:1;fill-rule:nonzero;stroke:none;font-family:Segoe Print;-inkscape-font-specification:Segoe Print;font-style:normal;font-stretch:normal;text-anchor:start;text-align:start;line-height:125%"
                 x="0 5 10.56 15.56 21.120001 26.68 32.240002"
                 y="0"
                 sodipodi:role="line"
                 id="tspan306">seconda</tspan></text>
</g></g></g><g
         id="g308"><g
           id="g310"
           clip-path="url(#clipPath312)"><path
             d="m 4402.51,3247.5 300,0"
             style="fill:none;stroke:#008000;stroke-width:5.00001001;stroke-linecap:butt;stroke-linejoin:round;stroke-miterlimit:10;stroke-opacity:1;stroke-dasharray:none"
             id="path316"
             inkscape:connector-curvature="0" /></g></g></g></g></svg>